<svg id="Layer_1" data-name="Layer 1" 
    xmlns="http://www.w3.org/2000/svg" viewBox="0 0 1500 500">
    <title>jabdb_banner</title>
    <path d="M400,56.5v72q-175,54-350,0v-72Q225,110.5,400,56.5Z"/>
    <path d="M400,200.5v72q-175,54-350,0v-72Q225,254.5,400,200.5Z"/>
    <path d="M400,344.5v72q-175,54-350,0v-72Q225,398.5,400,344.5Z"/>
    <path d="M568.7,341.65q0,23.4-12.3,35.4t-30.3,12a47.13,47.13,0,0,1-14.7-2.25,32.61,32.61,0,0,1-11.4-6.15l3.6-14.1a30.13,30.13,0,0,0,9.75,5.85,34.38,34.38,0,0,0,12.45,2.25q12.9,0,20.4-8.7t7.5-25.5V174.55h15ZM552.05,142a13.86,13.86,0,1,1,9.15,3.45A12.35,12.35,0,0,1,552.05,142Z"/>
    <path d="M776.9,312l-.9,12q-4.5,2.7-13.21,2.7-11.1,0-18.44-6.3T736.7,300q-6.91,13.5-21.75,20.55a72.27,72.27,0,0,1-31.35,7.05q-21.92,0-35.4-10.2t-13.5-28.5q0-16.5,11.09-26.85t31.81-14.55l59.1-11.7v-9.9q0-19.2-10.66-30.15T696.2,184.75q-36.62,0-47.7,31.8l-12.3-7.8a52.53,52.53,0,0,1,22.2-27.6q15.58-9.6,38.1-9.6,25.49,0,40.35,13.35t14.85,38.25v75q0,15.9,14.4,15.9A24.21,24.21,0,0,0,776.9,312ZM710,309.7a45.05,45.05,0,0,0,19.2-14.25q7.49-9.6,7.5-23.7v-23.4l-51.6,10.2q-18,3.6-26.56,10.5T650,287.65q0,12.6,9.29,19.65t26.41,7.05A65.21,65.21,0,0,0,710,309.7Z"/>
    <path d="M936.05,181q15.44,9.45,24.3,27t8.85,41.55q0,24-8.85,41.55t-24.45,27a66.46,66.46,0,0,1-35.1,9.45,61.35,61.35,0,0,1-34.35-9.9A55.23,55.23,0,0,1,844.7,291l-.9,33.6H830.3v-219h15v101.7A55.25,55.25,0,0,1,866.9,181q14.69-9.45,33.9-9.45Q920.6,171.55,936.05,181Zm3.3,116q14.85-17.4,14.85-47.4t-14.7-47.4q-14.71-17.4-40.2-17.4a49.54,49.54,0,0,0-27.9,8.1q-12.31,8.1-19.2,22.8t-6.9,34.2q0,19.5,6.9,34t19,22.5a49.52,49.52,0,0,0,27.75,8Q924.49,314.35,939.35,297Z"/>
    <path d="M1172.45,151.6q25.63,25.05,25.64,72.45,0,48.6-25.64,74.55t-73.06,25.95H1037v-198h62.39Q1146.79,126.55,1172.45,151.6Zm-11.11,136.8q21.17-22.35,21.16-64.35,0-40.2-21.16-62t-60.75-21.75H1052v170.4h48.59Q1140.21,310.75,1161.34,288.4Z"/>
    <path d="M1270.39,126.55h69.9q32.4,0,48.45,13.5t16,39q0,17.4-9.45,29.4t-26.85,15.6v.3q19.2,3,30.45,15.6t11.25,31.2q0,25.5-18.15,39.45t-51.75,13.95h-69.9Zm70.2,91.2q48.3,0,48.3-38.7t-48.3-38.7h-55.2v77.4Zm2.7,93q25.2,0,38.1-10.2t12.9-29.4q0-19.5-12.9-29.55t-38.1-10h-57.9v79.2Z"/>
</svg>